HIERARCHY
ROOT Hips
{
  OFFSET 12.8747 98.2847 -117.19
  CHANNELS 6 Xposition Yposition Zposition Zrotation Xrotation Yrotation
  JOINT ToSpine
  {
    OFFSET -2.69724 7.43032 -0.144315
    CHANNELS 3 Zrotation Xrotation Yrotation
    JOINT Spine
    {
      OFFSET -0.0310711 10.7595 1.96963
      CHANNELS 3 Zrotation Xrotation Yrotation
      JOINT Spine1
      {
        OFFSET 13.1342 3.43533 0.764692
        CHANNELS 3 Zrotation Xrotation Yrotation
        JOINT Neck
        {
          OFFSET 29.8703 7.82586 -0.130764
          CHANNELS 3 Zrotation Xrotation Yrotation
          JOINT Head
          {
            OFFSET 9.52751 0.295786 -0.907742
            CHANNELS 3 Zrotation Xrotation Yrotation
            End Site
            {
              OFFSET 16.4037 0.713936 2.7358
            }
          }
        }
        JOINT LeftShoulder
        {
          OFFSET 27.5574 4.95586 2.47156
          CHANNELS 3 Zrotation Xrotation Yrotation
          JOINT LeftArm
          {
            OFFSET 1.20734 -0.998971 20.1238
            CHANNELS 3 Zrotation Xrotation Yrotation
            JOINT LeftForeArm
            {
              OFFSET 26.8049 -0.0536703 -0.155908
              CHANNELS 3 Zrotation Xrotation Yrotation
              JOINT LeftHand
              {
                OFFSET 26.6817 0 0.320147
                CHANNELS 3 Zrotation Xrotation Yrotation
                End Site
                {
                  OFFSET 18.6119 0 0.382219
                }
              }
            }
          }
        }
        JOINT RightShoulder
        {
          OFFSET 27.5927 4.71444 -2.65209
          CHANNELS 3 Zrotation Xrotation Yrotation
          JOINT RightArm
          {
            OFFSET 2.83739 -1.17114 -18.7564
            CHANNELS 3 Zrotation Xrotation Yrotation
            JOINT RightForeArm
            {
              OFFSET 28.839 -0.0548439 1.22491
              CHANNELS 3 Zrotation Xrotation Yrotation
              JOINT RightHand
              {
                OFFSET 26.5114 0 -0.101894
                CHANNELS 3 Zrotation Xrotation Yrotation
                End Site
                {
                  OFFSET 18.2168 0 0
                }
              }
            }
          }
        }
      }
    }
  }
  JOINT LeftUpLeg
  {
    OFFSET -4.76168 -1.9167 -10.2353
    CHANNELS 3 Zrotation Xrotation Yrotation
    JOINT LeftLeg
    {
      OFFSET 2.55951 -42.0585 -8.02213
      CHANNELS 3 Zrotation Xrotation Yrotation
      JOINT LeftFoot
      {
        OFFSET 3.16357 -42.5282 -3.95426
        CHANNELS 3 Zrotation Xrotation Yrotation
        JOINT LeftToeBase
        {
          OFFSET 0.346054 -6.02161 12.8035
          CHANNELS 3 Zrotation Xrotation Yrotation
          End Site
          {
            OFFSET 0.134235 -1.35082 5.13018
          }
        }
      }
    }
  }
  JOINT RightUpLeg
  {
    OFFSET -4.94151 -1.41743 10.6446
    CHANNELS 3 Zrotation Xrotation Yrotation
    JOINT RightLeg
    {
      OFFSET -2.56294 -42.0364 -7.94377
      CHANNELS 3 Zrotation Xrotation Yrotation
      JOINT RightFoot
      {
        OFFSET -3.0952 -42.555 -4.02241
        CHANNELS 3 Zrotation Xrotation Yrotation
        JOINT RightToeBase
        {
          OFFSET -0.0828122 -6.13587 12.8035
          CHANNELS 3 Zrotation Xrotation Yrotation
          End Site
          {
            OFFSET -0.131328 -1.35082 5.13018
          }
        }
      }
    }
  }
}
MOTION
Frames:	15
Frame Time:	0.0333333
12.8594 98.302 -117.165 -8.49713 -68.9734 -101.588 -70.1915 0 88.8779 70.9183 70.7479 20.8329 4.41638 22.385 -2.63137 -152.704 19.8851 178.878 -157.848 59.3063 -168.87 0.201462 -13.6614 -35.0684 -67.1775 45.4992 -92.0225 12.3704 20.4015 -31.7336 0.420957 0.00057542 0.35866 -1.93649 6.27489 45.3132 -59.1651 -33.2861 100.9 6.30467 -14.4225 26.5042 0.58676 0.000331159 0.0646653 -53.4004 -1.63493 97.629 0.423055 22.0986 -2.84 2.88789 -11.5072 -1.08259 -6.1519 7.50712 9.72474 -53.6492 -8.33627 77.5783 4.19521 17.4807 15.1945 -13.2994 -2.75927 1.76746 0.642921 -9.24546 5.65456 
12.9254 98.2979 -117.138 -8.58108 -68.9503 -101.588 -70.1915 0 88.8779 69.8902 71.0146 21.3885 4.75592 22.4902 -1.78194 -153.499 19.9698 178.422 -156.054 59.2572 -171.007 0.0724396 -14.1066 -35.6411 -67.9616 45.2057 -91.4389 11.2574 18.7629 -31.3206 0.420957 0.00057542 0.35866 -1.88335 6.23221 44.702 -58.9437 -33.9468 100.811 6.29999 -12.4156 27.8722 0.58676 0.000331159 0.0646653 -53.0258 -0.995734 98.0605 -0.380726 22.9468 -2.61742 2.75802 -12.2175 -1.11737 -5.82232 7.04052 9.2146 -53.8512 -8.23279 77.6186 3.83253 17.1591 16.1765 -9.90093 -3.50215 1.40954 0.398596 -6.66057 3.5602 
13.5133 98.0614 -117.413 -7.17798 -69.3693 -100.036 -70.1915 0 88.8779 76.7396 71.7079 14.131 2.89969 22.3271 -0.508291 -153.638 20.155 176.532 -152.523 59.1302 -174.386 -0.173989 -14.9301 -36.5153 -68.6876 44.9834 -89.2757 7.06035 12.1248 -30.2181 0.420957 0.00057542 0.35866 -1.87358 6.36676 43.9016 -60.2575 -35.0911 98.9624 8.59085 -13.5373 32.9049 0.58676 0.000331159 0.0646653 -51.9813 -0.500258 98.5419 -1.32139 25.9205 -5.30828 2.00477 -11.8236 -1.07955 -0.0139055 -4.6154 13.8325 -53.3773 -8.26882 78.0202 2.63289 18.5692 17.77 -5.01983 -5.05701 0.965827 0.584808 -4.70211 -0.406061 
14.5589 97.726 -118.111 -7.91928 -70.0603 -101.318 -70.1915 0 88.8779 90.2994 71.8807 -0.581721 0.0342209 21.7144 1.05186 -152.892 19.7393 172.982 -146.356 58.0531 -178.69 -0.358419 -15.5477 -36.9905 -70.3365 45.2763 -86.1242 0.0519036 1.22153 -27.3879 0.420957 0.00057542 0.35866 -1.75239 6.42005 41.8812 -54.4593 -33.8937 103.434 13.1787 -15.3574 41.5058 0.58676 0.000331159 0.0646653 -50.482 -0.261904 99.2922 -1.76585 30.8715 -3.64045 1.67523 -15.0183 -1.28226 0.737463 -5.7597 13.3466 -51.8658 -8.9765 78.2447 1.33274 21.5553 18.3102 -3.44811 -5.58079 0.858433 1.51927 -10.8035 -0.792026 
15.788 97.0197 -119.413 -12.24 -69.0575 -105.573 -70.1915 0 88.8779 98.4401 70.972 -9.88294 -0.977355 20.214 3.43928 -151.972 18.4095 168.921 -139.044 55.6764 177.063 -0.5872 -16.3672 -37.2134 -85.0716 44.1273 -73.1133 -2.12063 0.521591 -24.2876 0.420957 0.00057542 0.35866 -1.369 5.76772 38.576 -44.997 -27.5209 113.284 18.6859 -14.3586 53.7023 0.58676 0.000331159 0.0646653 -46.5535 1.48481 99.2035 -2.10514 38.2286 -2.88168 1.87411 -16.7978 -1.39973 1.133 -6.98718 15.664 -47.4378 -9.6027 83.4491 -0.119433 26.1505 17.8814 -4.09815 -5.33379 0.896138 2.58612 -25.6739 -8.34711 
17.1647 95.4962 -121.071 -19.1534 -67.9586 -113.551 -70.1915 0 88.8779 105.889 69.4017 -20.8673 -1.333 18.2221 6.69099 -150.81 16.9174 167.575 -135.651 54.0072 177.725 -0.77954 -17.0488 -37.3262 -99.5413 37.844 -60.0138 -2.08321 3.44766 -21.4326 0.420957 0.00057542 0.35866 -1.04846 4.99199 36.1047 -40.7583 -17.649 122.252 24.7449 -11.8109 65.9414 0.58676 0.000331159 0.0646653 -42.9806 3.42709 98.6207 -2.89801 46.539 -3.78099 2.77237 -16.3604 -1.35665 3.22528 -10.7001 19.538 -40.3574 -5.72006 95.5476 0.512357 36.4137 7.68854 -5.7476 -7.72446 1.10874 2.22985 -25.8919 -13.9466 
18.253 92.9546 -122.388 -24.9423 -66.9949 -120.579 -70.1915 0 88.8779 112.988 67.3352 -29.2347 -1.77488 17.7428 5.16552 -147.635 15.6435 166.677 -133.513 53.2125 -179.758 -0.608646 -16.8821 -35.4447 -105.47 29.0572 -54.3211 -2.86231 1.28801 -19.8805 0.420957 0.00057542 0.35866 -1.0387 5.05977 35.642 -42.6336 -11.5177 128.431 31.6349 -8.47563 76.3814 0.58676 0.000331159 0.0646653 -40.3309 7.20965 97.1933 -4.01495 54.6753 -2.12173 1.21116 -17.8612 -1.48649 3.36423 -10.784 18.5757 -34.3726 -1.83396 107.07 2.44524 47.0543 -1.49717 -7.21054 -8.83574 1.21029 2.27527 -22.099 -14.5247 
18.9803 89.6535 -123.453 -25.2835 -67.64 -120.559 -70.1915 0 88.8779 117.875 65.2352 -33.734 -1.51018 17.4985 2.61044 -145.716 15.7673 166.017 -131.192 53.5215 -179.044 0.00325952 -15.0697 -32.0708 -109.415 18.8497 -53.4881 -2.85874 -3.0138 -22.9348 0.420957 0.00057542 0.35866 -1.158 5.8126 34.767 -49.325 -12.1706 131.796 33.7334 -4.29625 83.3913 0.58676 0.000331159 0.0646653 -38.0726 11.8598 92.4259 -5.28273 61.1613 -0.238089 -0.241646 -17.7158 -1.51898 3.76545 -11.4108 18.9498 -30.6784 -2.20273 109.525 3.4698 54.359 -1.02421 -8.63594 -10.5577 1.32252 2.34874 -21.0364 -8.35056 
19.8751 86.2099 -124.818 -24.7329 -68.0839 -118.21 -70.1915 0 88.8779 124.953 63.9807 -39.5765 -2.48418 18.4816 1.36468 -144.455 16.9134 166.282 -133.285 55.7729 -174.999 0.516966 -13.1036 -28.1943 -119.602 6.22149 -56.4227 2.47093 4.02293 -30.6746 0.420957 0.00057542 0.35866 -1.32204 6.66267 34.3641 -59.8516 -14.9141 130.069 31.053 -1.79478 86.8356 0.58676 0.000331159 0.0646653 -35.038 18.5028 85.6471 -5.78724 64.1661 2.43733 0.355421 -16.4718 -1.40463 3.22858 -10.3883 17.2761 -25.6038 -1.91058 107.76 6.57504 62.6869 4.36977 -4.58843 -15.3926 1.32077 2.34168 -17.3978 -20.7777 
21.4444 82.6862 -126.304 -22.9916 -67.8089 -116.368 -70.1915 0 88.8779 130.82 63.1309 -45.7833 -4.51292 20.0866 0.409102 -145.614 18.9383 169.313 -139.749 58.7071 -169.149 0.789308 -11.7744 -26.2429 -125.175 -2.0195 -64.3748 6.12785 6.12937 -45.0103 0.420957 0.00057542 0.35866 -1.38536 7.66804 32.3022 -71.9234 -17.2825 125.984 29.4631 -3.4436 83.7107 0.58676 0.000331159 0.0646653 -31.802 23.9971 80.52 -5.00198 63.2038 4.40567 0.37872 -12.329 -1.07084 3.66 -10.822 15.7425 -18.6959 -3.57268 106.838 11.5906 71.1334 3.76005 -4.0722 -17.2175 1.41485 2.41275 -17.1325 -26.4808 
23.7087 80.1884 -127.182 -19.4661 -67.8404 -112.164 -70.1915 0 88.8779 133.127 62.8749 -48.0055 -5.03233 21.1362 -1.11755 -146.883 20.9811 173.314 -150.125 61.4441 -159.218 0.989118 -10.6135 -23.601 -129.089 -6.80569 -74.7957 10.0355 5.73953 -60.1381 0.420957 0.00057542 0.35866 -1.63234 9.2238 31.5849 -82.4621 -18.3291 119.868 28.0594 -8.98256 73.5386 0.58676 0.000331159 0.0646653 -28.5234 29.5711 76.9679 -3.59929 59.4389 5.15496 -0.489658 -5.56473 -0.488075 2.80479 -8.78118 11.5592 -15.1846 -5.94185 106.95 16.2038 74.7399 2.22167 -5.57814 -16.5973 1.36137 2.02642 -20.0676 -28.7678 
26.4709 78.3066 -127.423 -9.8694 -68.1641 -102.846 -70.1915 0 88.8779 133.025 63.0285 -49.977 -7.49213 21.5952 -0.730632 -147.284 23.3624 177.782 -162.988 63.4898 -147.764 1.1465 -9.22893 -21.0005 -128.489 -2.68256 -84.9418 15.696 4.15029 -74.6563 0.420957 0.00057542 0.35866 -1.47609 9.53205 29.2256 -88.8528 -21.2088 111.623 23.5314 -14.034 60.8034 0.58676 0.000331159 0.0646653 -24.1882 32.4104 74.6007 -3.28719 56.2649 3.32775 -1.24329 0.835224 0.141503 2.23294 -6.84743 7.40725 -12.9641 -10.8783 107.858 19.8853 76.9155 0.36355 -5.50851 -17.0348 1.37705 1.68191 -22.2595 -29.8336 
30.9302 78.4695 -127.539 1.1227 -67.7063 -91.1814 -70.1915 0 88.8779 132.796 64.4005 -49.7168 -8.20528 22.6937 -0.946318 -146.857 25.7684 -179.696 -173.634 64.8131 -137.806 1.12598 -9.27629 -18.0713 -123.572 -2.29264 -97.8189 20.6164 1.42941 -86.1601 0.420957 0.00057542 0.35866 -1.3031 9.69527 27.0051 -94.9929 -23.3566 98.6995 23.2509 -20.4781 50.7737 0.58676 0.000331159 0.0646653 -20.3208 32.8462 72.4984 -3.26748 52.6436 0.0086836 -2.11788 7.41789 0.897694 2.49347 -6.70928 4.50201 -14.5471 -16.7625 107.558 14.2988 72.945 4.95925 -3.18581 -15.5577 1.34164 1.64241 -23.0068 -28.2491 
35.8341 79.8772 -126.804 10.7329 -67.5345 -81.3304 -70.1915 0 88.8779 130.371 66.4709 -48.2507 -7.59834 23.7922 -1.22015 -142.755 28.1219 -178.574 174.842 65.0035 -125.712 1.17923 -8.16326 -15.9666 -113.486 11.1038 -109.736 28.5123 -2.72226 -93.9745 0.420957 0.00057542 0.35866 -1.60574 10.2074 29.4438 -95.4085 -21.615 87.4821 17.7302 -22.5173 39.7443 0.58676 0.000331159 0.0646653 -22.0268 32.3133 72.7454 -2.76594 45.1424 -4.85064 -3.91271 12.6621 1.81237 -0.136418 0.191946 0.348725 -20.2529 -21.7359 107.177 8.03103 65.0808 4.0876 -1.08701 -12.0526 1.1216 1.97107 -23.5783 -20.784 
41.5472 82.3878 -125.616 19.0797 -67.4248 -72.0935 -70.1915 0 88.8779 125.994 68.7247 -44.0262 -5.95304 24.5453 -1.73772 -135.743 29.3935 -178.845 168.73 64.2884 -117.814 1.21725 -7.57241 -15.8989 -96.5697 20.3577 -122.719 35.3078 -5.69711 -97.2971 0.420957 0.00057542 0.35866 -2.25908 10.1163 36.1589 -90.727 -17.7501 79.7165 11.3058 -20.4725 30.4913 0.58676 0.000331159 0.0646653 -27.4924 31.1442 74.6537 -2.32466 35.5322 -16.845 -6.07527 16.6105 2.86818 -2.7209 4.58631 2.22277 -29.9462 -25.4339 104.119 2.91055 52.6036 -1.89284 -1.4024 -6.77224 0.770943 2.03622 -20.1065 -15.4459 
